<svg width="32" height="32" fill="none" xmlns="http://www.w3.org/2000/svg"><path d="M14.618.216c-2.368.208-4.393.496-6.113.912-4.395 1.063-6.8 2.95-7.851 6.429-.734 2.42-.806 5.61-.438 9.824.248 2.837.614 5.178 1.175 7.098 1.145 3.92 3.105 6.058 6.546 6.973 2.372.63 5.447.679 9.44.33 3.553-.311 6.334-.806 8.471-1.638 3.564-1.385 5.34-3.706 5.924-7.672.312-2.115.284-4.698.008-7.855-.297-3.388-.76-6.074-1.52-8.17-1.2-3.292-3.14-5.127-6.34-5.937-2.352-.596-5.384-.636-9.302-.294z" fill="#CBB1FF"/><path d="M27.896 21.124l-2.047-7.656a10.4 10.4 0 00-12.737-7.352L.213 9.57c-.299 2.1-.27 4.657 0 7.776 1.105 12.63 4.534 15.507 17.164 14.4 6.227-.545 10.08-1.655 12.259-4.153l-1.74-6.469zm-10.632-.448a4.84 4.84 0 11-2.504-9.352 4.84 4.84 0 012.504 9.352z" fill="#7D24FF"/><path d="M26.677 16.599l.58 2.17a11.194 11.194 0 004.626-2.864 63.265 63.265 0 00-.305-3.276 8.975 8.975 0 01-4.901 3.97zM20.1 18.622c.405-.64.655-1.366.73-2.12a8.922 8.922 0 01-.692-16.48 39.944 39.944 0 00-4.02.08 11.161 11.161 0 003.983 18.52z" fill="#fff"/></svg>