<svg width="88" height="44" fill="none" xmlns="http://www.w3.org/2000/svg"><g clip-path="url(#clip0_13923_106741)" fill="#007BFB"><path d="M25.09 16.24h3.918l3.16 8.64 3.138-8.64h3.78v11.527h-2.51v-8.82L33.3 27.76h-2.587L27.44 19v8.76h-2.35V16.24zm30.42 0h8.647v11.527h-2.679v-9.104h-3.527c-.023 1.62-.07 3.787-.115 5.002-.092 3.023-.949 4.095-3.459 4.095h-1.201v-2.43h.666c1.132 0 1.5-.525 1.568-2.167.077-1.763.1-5.258.1-6.923zm22.322 0h10.17v2.43h-3.757v9.097h-2.656v-9.104h-3.757V16.24zM18.167 16h-.957c-2.303 0-4.04 1.448-4.445 3.593l2.44.404c.337-1.027 1.103-1.724 2.074-1.77.184-.015.368-.015.551 0 1.454.053 2.105.773 2.105 2.535-2.74 0-4.607-.134-5.984.803-1.125.765-1.607 1.612-1.607 2.955 0 1.942 1.461 3.48 3.826 3.48h.321c1.668 0 3.015-.668 3.558-1.477v1.244h2.465v-6.952C22.52 18.137 21.128 16 18.166 16zm-1.5 9.75c-1.048-.03-1.653-.66-1.653-1.448 0-.652.284-.982.666-1.207.39-.232.91-.315 1.707-.345.772-.03 1.392-.06 2.594-.06 0 1.965-1.202 2.955-2.686 3.06a8.22 8.22 0 01-.628 0zm60.543-2.97V21.7c0-3.72-2.264-5.64-5.18-5.64h-.574c-3.145 0-5.15 2.213-5.25 5.34a19.16 19.16 0 000 1.275c.077 3.105 2.182 5.198 5.005 5.28.52.015.452.015.934 0 2.456-.067 4.316-1.537 4.859-3.442l-2.372-.428c-.582 1.2-1.684 1.658-2.571 1.703a3.964 3.964 0 01-.597 0c-1.385-.06-2.632-1.185-2.632-2.813v-.195h8.379zm-5.8-4.552c.222-.015.444-.015.658 0 1.163.06 2.395.84 2.51 2.4H68.84c.138-1.388 1.217-2.325 2.571-2.4zM52.447 20.98c-.061-2.79-2.234-4.928-5.12-4.928h-1.04c-2.877 0-5.058 2.138-5.12 4.943-.015.78-.015 1.23 0 2.01.062 2.805 2.235 4.943 5.12 4.943h1.04c2.878 0 5.059-2.138 5.12-4.943.015-.78.015-1.245 0-2.025zm-2.632 1.883c-.03 1.627-1.179 2.737-2.724 2.812a3.665 3.665 0 01-.574 0c-1.562-.082-2.694-1.185-2.725-2.813a32.986 32.986 0 010-1.74c.031-1.612 1.163-2.715 2.725-2.797.19-.015.382-.015.573 0 1.546.082 2.694 1.185 2.725 2.813.015.682.015 1.05 0 1.724zm-41.61.832c-.314 1.072-1.14 1.8-2.257 1.965a3.037 3.037 0 01-.903 0c-1.393-.203-2.372-1.275-2.395-2.79a32.965 32.965 0 010-1.74c.023-1.53 1.048-2.647 2.464-2.805.23-.023.459-.03.688-.008 1.186.136 2.082.87 2.41 1.995l2.595-.517c-.559-2.183-2.48-3.743-4.936-3.743H5.13c-2.877 0-5.058 2.138-5.12 4.943-.007.78-.007 1.23 0 2.01.062 2.805 2.235 4.943 5.12 4.943h.742c2.502 0 4.438-1.613 4.951-3.878l-2.617-.375z"/></g><defs><clipPath id="clip0_13923_106741"><path fill="#fff" transform="translate(0 16)" d="M0 0h88v12H0z"/></clipPath></defs></svg>